<svg xmlns="http://www.w3.org/2000/svg" viewBox="0 0 512 512" style="overflow: visible;" data-bbox="85.24234008789062 227.7126922607421 256.24109728404335 56.57460888183087"><g transform="matrix(0.9999999143183305, 0, 0, 0.9999999143183305, 1.1368683772161603e-13, 7.389644451905042e-13)" fill="rgba(0,55,255,1)" data-uid="o_f5g969e53_6"><path d="M166 0H75C33.645 0 0 33.645 0 75v91c0 41.355 33.645 75 75 75h91c41.355 0 75-33.645 75-75V75&#10;&#9;&#9;&#9;C241 33.645 207.355 0 166 0z" transform="matrix(0.9890902638435364, 0, 0, 0.9890902638435364, 0, -6.821210263296962e-13)" fill="rgba(0,55,255,1)" data-uid="o_f5g969e53_7"/><path d="M437 271h-91c-41.355 0-75 33.645-75 75v91c0 41.355 33.645 75 75 75h91c41.355 0 75-33.645 75-75v-91&#10;&#9;&#9;&#9;C512 304.645 478.355 271 437 271z" transform="matrix(0.98734450340271, 0, 0, 0.98734450340271, 6.479658126831055, 6.479658126831055)" fill="rgba(0,55,255,1)" data-uid="o_f5g969e53_8"/><path d="M437 0h-91c-41.355 0-75 33.645-75 75v91c0 57.897-47.103 105-105 105H75c-41.355 0-75 33.645-75 75v91&#10;&#9;&#9;&#9;c0 41.355 33.645 75 75 75h91c41.355 0 75-33.645 75-75v-91c0-57.897 47.103-105 105-105h91c41.355 0 75-33.645 75-75V75&#10;&#9;&#9;&#9;C512 33.645 478.355 0 437 0z" transform="matrix(1, 0, 0, 1, 0, 4.547473237814098e-13)" fill="rgba(0,3,205,1)" data-uid="o_f5g969e53_9"/></g></svg>